<svg xmlns="http://www.w3.org/2000/svg" viewBox="0 0 520 300" width="520" height="300" fill="none" role="presentation">
  <g stroke="#5b8fc9" stroke-width="1.4" stroke-linecap="round" stroke-linejoin="round" opacity=".85">
    <path d="M520 40H420l-24 24H300"/>
    <path d="M520 88H452l-20 20h-96l-18 18H236"/>
    <path d="M520 136H392l-22 22H286"/>
    <path d="M520 184H468l-26 26H332l-20 20H210"/>
    <path d="M520 232H430l-22 22H318"/>
    <path d="M396 64v44l20 20v40"/>
    <path d="M336 108v56l22 22v46"/>
    <path d="M470 16v72l-18 18v52"/>
    <path d="M262 126v60l-22 22v34"/>
    <path d="M416 172h56l20 20v40"/>
  </g>
  <g fill="#3f7fc4" opacity=".9">
    <circle cx="300" cy="40" r="3.4"/><circle cx="236" cy="126" r="3.4"/><circle cx="286" cy="158" r="3.4"/>
    <circle cx="210" cy="230" r="3.4"/><circle cx="318" cy="254" r="3.4"/><circle cx="396" cy="64" r="3.4"/>
    <circle cx="336" cy="108" r="3.4"/><circle cx="470" cy="16" r="3.4"/><circle cx="416" cy="172" r="3.4"/>
    <circle cx="492" cy="232" r="3.4"/><circle cx="358" cy="232" r="3.4"/><circle cx="240" cy="242" r="3.4"/>
  </g>
  <g fill="#4a8fd0" opacity=".5">
    <circle cx="452" cy="88" r="2.2"/><circle cx="432" cy="108" r="2.2"/><circle cx="392" cy="136" r="2.2"/>
    <circle cx="370" cy="158" r="2.2"/><circle cx="468" cy="184" r="2.2"/><circle cx="442" cy="210" r="2.2"/>
    <circle cx="332" cy="210" r="2.2"/><circle cx="312" cy="230" r="2.2"/><circle cx="430" cy="232" r="2.2"/>
    <circle cx="408" cy="254" r="2.2"/><circle cx="262" cy="126" r="2.2"/>
  </g>
</svg>
